<?xml version="1.0" encoding="UTF-8" standalone="no"?>
<svg
   xmlns:dc="http://purl.org/dc/elements/1.1/"
   xmlns:cc="http://creativecommons.org/ns#"
   xmlns:rdf="http://www.w3.org/1999/02/22-rdf-syntax-ns#"
   xmlns:svg="http://www.w3.org/2000/svg"
   xmlns="http://www.w3.org/2000/svg"
   xmlns:sodipodi="http://sodipodi.sourceforge.net/DTD/sodipodi-0.dtd"
   xmlns:inkscape="http://www.inkscape.org/namespaces/inkscape"
   width="30"
   height="30"
   viewBox="0 0 30 30"
   version="1.1"
   id="svg9"
   sodipodi:docname="logo.svg"
   inkscape:version="0.92.5 (2060ec1f9f, 2020-04-08)">
  <metadata
     id="metadata15">
    <rdf:RDF>
      <cc:Work
         rdf:about="">
        <dc:format>image/svg+xml</dc:format>
        <dc:type
           rdf:resource="http://purl.org/dc/dcmitype/StillImage" />
        <dc:title>4135B303-CB0F-43C8-8C8F-225E46D3A3E3</dc:title>
      </cc:Work>
    </rdf:RDF>
  </metadata>
  <defs
     id="defs13" />
  <sodipodi:namedview
     pagecolor="#ffffff"
     bordercolor="#666666"
     borderopacity="1"
     objecttolerance="10"
     gridtolerance="10"
     guidetolerance="10"
     inkscape:pageopacity="0"
     inkscape:pageshadow="2"
     inkscape:window-width="1602"
     inkscape:window-height="871"
     id="namedview11"
     showgrid="false"
     inkscape:zoom="19.666667"
     inkscape:cx="25.549767"
     inkscape:cy="15.135206"
     inkscape:window-x="0"
     inkscape:window-y="27"
     inkscape:window-maximized="0"
     inkscape:current-layer="svg9" />
  <title
     id="title2">4135B303-CB0F-43C8-8C8F-225E46D3A3E3</title>
  <g
     id="DS-Style-Guide"
     style="fill:none;fill-rule:evenodd;stroke:none;stroke-width:1"
     transform="matrix(0.41143082,0,0,0.41706694,-4.8865756,-5.012913)">
    <g
       id="DS-/-Style-Guide-/-Brand"
       transform="translate(-1323,-629)"
       style="fill:#e3e3e3">
      <g
         id="Atoms-/-Brand-/-Isotype-/-isotype-B-light"
         transform="translate(1323,629)">
        <g
           id="Atoms-/-Brand-/-Isotype-v4"
           transform="translate(17.361702,18.382979)">
          <path
             d="M 39.392034,0.33851303 C 52.047353,4.0838212 61.27663,15.737809 61.27663,29.538647 61.27663,46.364437 47.559183,60.00482 30.638332,60.00482 13.71714,60.00482 3.4042553e-5,46.364437 3.4042553e-5,29.538647 3.4042553e-5,15.737809 9.2293106,4.0838212 21.884289,0.33851303 v 0 9.25088407 C 14.155609,12.947446 8.7537362,20.615105 8.7537362,29.538647 c 0,12.018567 9.7981278,21.76131 21.8845958,21.76131 12.086468,0 21.884255,-9.742743 21.884255,-21.76131 0,-8.923542 -5.401532,-16.591201 -13.130553,-19.9492499 v 0 z M 30.638332,20.833852 c 4.834383,0 8.753702,3.897301 8.753702,8.704863 0,4.807223 -3.919319,8.704524 -8.753702,8.704524 -4.834724,0 -8.754043,-3.897301 -8.754043,-8.704524 0,-4.807562 3.919319,-8.704863 8.754043,-8.704863 z"
             id="Combined-Shape"
             inkscape:connector-curvature="0" />
        </g>
      </g>
    </g>
  </g>
</svg>
